<?xml version="1.0" encoding="UTF-8"?>
<svg xmlns="http://www.w3.org/2000/svg" width="1000" height="360" viewBox="0 0 1000 360">
  <style>
        text { fill: currentColor; dominant-baseline: middle; }
        .label { font: 500 20px "Inter", "Helvetica Neue", Arial, sans-serif; }
        .value { font: 18px "IBM Plex Mono", "Courier New", monospace; }
    </style>
  <rect x="0" y="10" width="1000" height="40" fill="rgba(255,255,255,0.15)" />
  <text class="label" x="20" y="30">ChronicleMap</text>
  <rect x="250" y="17" width="8" height="26" rx="6" ry="6" fill="#4b81ba" stroke="#3F6D9E" stroke-width="2" />
  <text class="value" x="274" y="30">2,454 ops/s</text>
  <rect x="0" y="70" width="1000" height="40" fill="rgba(255,255,255,0.15)" />
  <text class="label" x="20" y="90">H2</text>
  <rect x="250" y="77" width="55" height="26" rx="6" ry="6" fill="#12b548" stroke="#0F993D" stroke-width="2" />
  <text class="value" x="321" y="90">39,736 ops/s</text>
  <rect x="0" y="130" width="1000" height="40" fill="rgba(255,255,255,0.15)" />
  <text class="label" x="20" y="150">HestiaStoreBasic</text>
  <rect x="250" y="137" width="590" height="26" rx="6" ry="6" fill="#e64d4f" stroke="#C34143" stroke-width="2" />
  <text class="value" x="856" y="150">423,154 ops/s</text>
  <rect x="0" y="190" width="1000" height="40" fill="rgba(255,255,255,0.15)" />
  <text class="label" x="20" y="210">LevelDB</text>
  <rect x="250" y="197" width="65" height="26" rx="6" ry="6" fill="#EDC948" stroke="#C9AA3D" stroke-width="2" />
  <text class="value" x="331" y="210">47,190 ops/s</text>
  <rect x="0" y="250" width="1000" height="40" fill="rgba(255,255,255,0.15)" />
  <text class="label" x="20" y="270">MapDB</text>
  <rect x="250" y="257" width="21" height="26" rx="6" ry="6" fill="#ea54c0" stroke="#C647A3" stroke-width="2" />
  <text class="value" x="287" y="270">15,559 ops/s</text>
  <rect x="0" y="310" width="1000" height="40" fill="rgba(255,255,255,0.15)" />
  <text class="label" x="20" y="330">RocksDB</text>
  <rect x="250" y="317" width="151" height="26" rx="6" ry="6" fill="#607c65" stroke="#516955" stroke-width="2" />
  <text class="value" x="417" y="330">108,818 ops/s</text>
</svg>