<?xml version="1.0" encoding="UTF-8"?>
<svg xmlns="http://www.w3.org/2000/svg" width="1000" height="360" viewBox="0 0 1000 360">
  <style>
        text { fill: currentColor; dominant-baseline: middle; }
        .label { font: 500 20px "Inter", "Helvetica Neue", Arial, sans-serif; }
        .value { font: 18px "IBM Plex Mono", "Courier New", monospace; }
    </style>
  <rect x="0" y="10" width="1000" height="40" fill="rgba(255,255,255,0.15)" />
  <text class="label" x="20" y="30">ChronicleMap</text>
  <rect x="250" y="17" width="11" height="26" rx="6" ry="6" fill="#4E79A7" stroke="#42668D" stroke-width="2" />
  <text class="value" x="277" y="30">5,954</text>
  <rect x="0" y="70" width="1000" height="40" fill="rgba(255,255,255,0.15)" />
  <text class="label" x="20" y="90">H2</text>
  <rect x="250" y="77" width="25" height="26" rx="6" ry="6" fill="#F28E2B" stroke="#CD7824" stroke-width="2" />
  <text class="value" x="291" y="90">13,458</text>
  <rect x="0" y="130" width="1000" height="40" fill="rgba(255,255,255,0.15)" />
  <text class="label" x="20" y="150">HestiaStoreCompressWrite</text>
  <rect x="250" y="137" width="106" height="26" rx="6" ry="6" fill="#E15759" stroke="#BF494B" stroke-width="2" />
  <text class="value" x="372" y="150">55,268</text>
  <rect x="0" y="190" width="1000" height="40" fill="rgba(255,255,255,0.15)" />
  <text class="label" x="20" y="210">LevelDB</text>
  <rect x="250" y="197" width="87" height="26" rx="6" ry="6" fill="#59A14F" stroke="#4B8843" stroke-width="2" />
  <text class="value" x="353" y="210">45,263</text>
  <rect x="0" y="250" width="1000" height="40" fill="rgba(255,255,255,0.15)" />
  <text class="label" x="20" y="270">MapDB</text>
  <rect x="250" y="257" width="8" height="26" rx="6" ry="6" fill="#B07AA1" stroke="#956788" stroke-width="2" />
  <text class="value" x="274" y="270">2,946</text>
  <rect x="0" y="310" width="1000" height="40" fill="rgba(255,255,255,0.15)" />
  <text class="label" x="20" y="330">RocksDB</text>
  <rect x="250" y="317" width="590" height="26" rx="6" ry="6" fill="#9299fb" stroke="#7C82D5" stroke-width="2" />
  <text class="value" x="856" y="330">305,712</text>
</svg>